# xmcd
#
# Track frame offsets:
#	150
#	16840
#	31640
#	45538
#
# Disc length: 902 seconds
#
# Revision: 0
# Processed by: cddbd v1.5.2PL0 Copyright (c) Steve Scherf et al.
# Submitted via: audiograbber 1.83.01
#
DISCID=1e038404
DTITLE=Cold Shuffle - Elvis has left the mothership
DYEAR=2010
DGENRE=Blues
TTITLE0=Austin
TTITLE1=Rock my house
TTITLE2=Cold Shuffle
TTITLE3=Highschool rock n roll
EXTD=Till Seidel - Guitar\nStefan Knauer - Bass\nJörn Krause - Vocals\nHans-Ulr
EXTD=ich Lerch - Drums
EXTT0=
EXTT1=
EXTT2=
EXTT3=
PLAYORDER=
